<svg width="32" height="32" viewBox="0 0 32 32" fill="none" xmlns="http://www.w3.org/2000/svg">
    <path d="M20 30.3332H12C4.76002 30.3332 1.66669 27.2398 1.66669 19.9998V11.9998C1.66669 4.75984 4.76002 1.6665 12 1.6665H20C27.24 1.6665 30.3334 4.75984 30.3334 11.9998V19.9998C30.3334 27.2398 27.24 30.3332 20 30.3332ZM12 3.6665C5.85335 3.6665 3.66669 5.85317 3.66669 11.9998V19.9998C3.66669 26.1465 5.85335 28.3332 12 28.3332H20C26.1467 28.3332 28.3334 26.1465 28.3334 19.9998V11.9998C28.3334 5.85317 26.1467 3.6665 20 3.6665H12Z" fill="white"/>
    <path d="M16 21.6668C12.88 21.6668 10.3333 19.1202 10.3333 16.0002C10.3333 12.8802 12.88 10.3335 16 10.3335C19.12 10.3335 21.6666 12.8802 21.6666 16.0002C21.6666 19.1202 19.12 21.6668 16 21.6668ZM16 12.3335C13.9733 12.3335 12.3333 13.9735 12.3333 16.0002C12.3333 18.0268 13.9733 19.6668 16 19.6668C18.0266 19.6668 19.6666 18.0268 19.6666 16.0002C19.6666 13.9735 18.0266 12.3335 16 12.3335Z" fill="white"/>
    <path d="M22.6666 9.99987C22.4933 9.99987 22.32 9.95987 22.16 9.89321C22 9.82654 21.8533 9.73321 21.72 9.61321C21.6 9.47987 21.4933 9.33321 21.4266 9.17321C21.36 9.01321 21.3333 8.83987 21.3333 8.66654C21.3333 8.49321 21.36 8.31987 21.4266 8.15987C21.5066 7.98654 21.6 7.85321 21.72 7.71987C21.7866 7.66654 21.8533 7.59987 21.92 7.55987C22 7.50654 22.08 7.46654 22.16 7.43987C22.24 7.39987 22.32 7.37321 22.4133 7.35987C22.84 7.26654 23.2933 7.41321 23.6133 7.71987C23.7333 7.85321 23.8266 7.98654 23.8933 8.15987C23.96 8.31987 24 8.49321 24 8.66654C24 8.83987 23.96 9.01321 23.8933 9.17321C23.8266 9.33321 23.7333 9.47987 23.6133 9.61321C23.48 9.73321 23.3333 9.82654 23.1733 9.89321C23.0133 9.95987 22.84 9.99987 22.6666 9.99987Z" fill="white"/>
    </svg>
    