<svg width="32" height="32" viewBox="0 0 32 32" fill="none" xmlns="http://www.w3.org/2000/svg">
    <path d="M2.66667 30.3333C2.4 30.3333 2.14663 30.2267 1.95996 30.04C1.70663 29.7867 1.60003 29.4133 1.69336 29.0667L3.37337 22.7867C2.25337 20.7067 1.66667 18.36 1.66667 15.9867C1.66667 8.07999 8.09334 1.65332 16 1.65332C23.9067 1.65332 30.3333 8.07999 30.3333 15.9867C30.3333 23.8933 23.9067 30.32 16 30.32C13.5867 30.32 11.2267 29.72 9.12004 28.5733L2.93335 30.2933C2.84002 30.32 2.76 30.3333 2.66667 30.3333ZM9.25334 26.5067C9.42667 26.5067 9.60001 26.56 9.76001 26.64C11.64 27.7467 13.8 28.3333 16 28.3333C22.8 28.3333 28.3333 22.8 28.3333 16C28.3333 9.2 22.8 3.66667 16 3.66667C9.2 3.66667 3.66667 9.2 3.66667 16C3.66667 18.1733 4.23999 20.2933 5.31999 22.16C5.45332 22.3867 5.49334 22.6667 5.42668 22.92L4.09334 27.9067L9 26.5467C9.08 26.52 9.17334 26.5067 9.25334 26.5067Z" fill="white"/>
    <path d="M19.6533 23.6801C18.8267 23.6801 17.9734 23.4934 17.08 23.1067C16.24 22.7467 15.4 22.2667 14.5867 21.6667C13.7867 21.0801 13 20.4134 12.28 19.6934C11.56 18.96 10.8933 18.1867 10.3067 17.3867C9.70666 16.5467 9.22665 15.72 8.87998 14.9067C8.50665 14.0267 8.32001 13.1601 8.32001 12.3334C8.32001 11.7467 8.42665 11.1867 8.62665 10.6667C8.83998 10.1201 9.18666 9.62671 9.63999 9.20005C10.4933 8.36005 11.72 8.05341 12.6934 8.52008C13.0267 8.66674 13.3067 8.90674 13.52 9.22674L15.0667 11.4C15.2267 11.6134 15.3467 11.84 15.44 12.0667C15.5467 12.3334 15.6134 12.6001 15.6134 12.8534C15.6134 13.2001 15.52 13.5467 15.3334 13.8534C15.2134 14.0534 15.04 14.2934 14.8133 14.5201L14.64 14.7067C14.72 14.8134 14.8133 14.9467 14.96 15.1067C15.24 15.4267 15.5467 15.7734 15.88 16.1067C16.2133 16.4267 16.5467 16.7467 16.88 17.0267C17.04 17.16 17.1734 17.2667 17.2801 17.3334L17.4667 17.1467C17.7067 16.9067 17.9467 16.7201 18.1867 16.6001C18.6267 16.3201 19.3067 16.2534 19.9067 16.5067C20.12 16.5867 20.3333 16.7067 20.56 16.8667L22.7867 18.44C23.0934 18.6534 23.3333 18.9467 23.4933 19.28C23.6267 19.6134 23.68 19.9067 23.68 20.2134C23.68 20.6134 23.5867 21.0001 23.4134 21.3734C23.24 21.7201 23.04 22.0267 22.8 22.3067C22.3733 22.7734 21.88 23.1201 21.3467 23.3467C20.8134 23.5734 20.24 23.6801 19.6533 23.6801ZM11.72 10.32C11.64 10.32 11.3734 10.32 11.0401 10.6534C10.7867 10.8934 10.6133 11.1467 10.4933 11.4267C10.3733 11.7067 10.32 12.0267 10.32 12.3467C10.32 12.9067 10.4533 13.5067 10.72 14.1467C11 14.8134 11.4134 15.5201 11.92 16.2267C12.44 16.9334 13.0267 17.6401 13.68 18.2934C14.3334 18.9334 15.0267 19.5334 15.7467 20.0667C16.44 20.5734 17.1467 20.9734 17.8534 21.28C18.8667 21.72 19.8 21.8267 20.56 21.5067C20.8267 21.4001 21.0667 21.2134 21.3067 20.9734C21.4267 20.8401 21.52 20.7067 21.6 20.5334C21.64 20.44 21.6667 20.3334 21.6667 20.24C21.6667 20.2134 21.6666 20.1734 21.6266 20.0934L19.4 18.5467C19.3067 18.4801 19.2133 18.4267 19.1333 18.4C19.08 18.4267 19 18.4667 18.8534 18.6134L18.3467 19.1201C17.96 19.5067 17.3467 19.6134 16.8534 19.44L16.6134 19.3334C16.3067 19.1734 15.96 18.9334 15.5733 18.6001C15.2 18.2801 14.8401 17.9467 14.4534 17.5734C14.0801 17.1867 13.7467 16.8267 13.4267 16.4534C13.08 16.0401 12.84 15.7067 12.68 15.4267L12.5334 15.0801C12.4934 14.9467 12.48 14.8001 12.48 14.6667C12.48 14.2934 12.6134 13.96 12.8667 13.6934L13.3734 13.1734C13.5201 13.0267 13.5734 12.9467 13.6 12.8934C13.56 12.8001 13.5067 12.7201 13.44 12.6267L11.88 10.4267L11.72 10.32Z" fill="white"/>
    </svg>
    