<svg width="32" height="32" viewBox="0 0 32 32" fill="none" xmlns="http://www.w3.org/2000/svg">
    <path d="M22.6667 27.6668H9.33335C4.74669 27.6668 1.66669 24.5868 1.66669 20.0002V12.0002C1.66669 7.4135 4.74669 4.3335 9.33335 4.3335H22.6667C27.2534 4.3335 30.3334 7.4135 30.3334 12.0002V20.0002C30.3334 24.5868 27.2534 27.6668 22.6667 27.6668ZM9.33335 6.3335C5.89335 6.3335 3.66669 8.56016 3.66669 12.0002V20.0002C3.66669 23.4402 5.89335 25.6668 9.33335 25.6668H22.6667C26.1067 25.6668 28.3334 23.4402 28.3334 20.0002V12.0002C28.3334 8.56016 26.1067 6.3335 22.6667 6.3335H9.33335Z" fill="white"/>
    <path d="M14.1201 20.7068C13.7334 20.7068 13.36 20.6135 13.0267 20.4268C12.2534 19.9868 11.8 19.0934 11.8 17.9868V14.0401C11.8 12.9335 12.24 12.0401 13.0267 11.6001C13.8 11.1601 14.8 11.2401 15.7467 11.8134L19.0401 13.7868C19.9467 14.3335 20.4667 15.1468 20.4667 16.0135C20.4667 16.8801 19.9467 17.6935 19.0401 18.2401L15.7467 20.2135C15.2 20.5335 14.6401 20.7068 14.1201 20.7068ZM14.1201 13.2935C14.0667 13.2935 14.0267 13.3068 14 13.3201C13.9067 13.3734 13.8 13.6134 13.8 14.0268V17.9735C13.8 18.3735 13.9067 18.6135 14 18.6801C14.1067 18.7335 14.3601 18.7068 14.7067 18.4935L18 16.5201C18.3334 16.3201 18.4534 16.1201 18.4534 16.0001C18.4534 15.8801 18.3334 15.6934 18 15.4801L14.7067 13.5068C14.4667 13.3601 14.2534 13.2935 14.1201 13.2935Z" fill="white"/>
    </svg>
    