<svg width="86" height="15" viewBox="0 0 86 15" fill="none" xmlns="http://www.w3.org/2000/svg">
    <path fill-rule="evenodd" clip-rule="evenodd" d="M8.22333 0.176397C7.72745 -0.0587983 7.15218 -0.058799 6.65629 0.176395C6.31301 0.339213 6.06949 0.647412 5.85371 0.995746C5.63677 1.34597 5.39875 1.82202 5.10235 2.41485L5.10234 2.41487L5.09074 2.43808L4.85184 2.91588C4.64859 3.32238 4.58949 3.42891 4.51529 3.50658C4.43874 3.58668 4.34697 3.65069 4.24534 3.69481C4.14681 3.73759 4.02641 3.75622 3.57471 3.80642L3.35785 3.83051L3.33183 3.83341H3.33182C2.61975 3.91252 2.05092 3.97572 1.62028 4.06331C1.19555 4.1497 0.799723 4.27759 0.522646 4.56029C0.126213 4.96475 -0.06042 5.53011 0.0172928 6.0911C0.0716078 6.48319 0.313495 6.82163 0.603312 7.14391C0.89717 7.47065 1.31658 7.86015 1.84159 8.34767L1.86078 8.36549L2.08973 8.57806C2.48742 8.94735 2.58939 9.05181 2.64652 9.16305C2.7055 9.27794 2.73692 9.40494 2.73828 9.53407C2.73959 9.65894 2.69724 9.80143 2.51511 10.3205L2.50651 10.3451L2.50649 10.3451C2.23771 11.1111 2.02486 11.7178 1.90401 12.1897C1.78661 12.6482 1.72083 13.0984 1.87388 13.4882C2.08926 14.0368 2.55585 14.448 3.12719 14.5926C3.53205 14.6951 3.96654 14.5757 4.40266 14.4037C4.85038 14.2271 5.41729 13.9436 6.13209 13.5862L6.15549 13.5745L6.71128 13.2966C7.08602 13.1092 7.18835 13.0631 7.28655 13.0447C7.38782 13.0257 7.49181 13.0257 7.59307 13.0447C7.69128 13.0631 7.7936 13.1092 8.16834 13.2966L8.72413 13.5745L8.7476 13.5862C9.46237 13.9436 10.0293 14.2271 10.4769 14.4037C10.913 14.5757 11.3476 14.6951 11.7524 14.5926C12.3238 14.448 12.7904 14.0368 13.0057 13.4882C13.1588 13.0984 13.093 12.6482 12.9756 12.1897C12.8548 11.7178 12.6419 11.1111 12.3731 10.3451V10.345L12.3645 10.3205C12.1824 9.80143 12.14 9.65894 12.1413 9.53407C12.1427 9.40494 12.1741 9.27794 12.2331 9.16305C12.2903 9.05181 12.3922 8.94735 12.7899 8.57806L13.0188 8.36549L13.0381 8.3476C13.5631 7.86009 13.9825 7.47065 14.2763 7.14391C14.5661 6.82163 14.808 6.48319 14.8623 6.0911C14.9401 5.53011 14.7534 4.96475 14.357 4.56029C14.0799 4.27759 13.6841 4.1497 13.2593 4.06331C12.8287 3.97572 12.2599 3.91252 11.5478 3.83341L11.5218 3.83051L11.3049 3.80642C10.8532 3.75622 10.7328 3.73759 10.6343 3.69481C10.5327 3.65069 10.4409 3.58668 10.3644 3.50658C10.2902 3.42891 10.2311 3.32238 10.0278 2.91587L9.7889 2.43809L9.77726 2.41486C9.48085 1.82202 9.24289 1.34597 9.02593 0.995746C8.81017 0.647412 8.56668 0.339219 8.22333 0.176397Z" fill="#FFC250"/>
    <path fill-rule="evenodd" clip-rule="evenodd" d="M25.863 0.176397C25.3671 -0.0587983 24.7918 -0.058799 24.2959 0.176395C23.9527 0.339213 23.7091 0.647412 23.4934 0.995746C23.2764 1.34597 23.0384 1.82202 22.742 2.41485L22.742 2.41487L22.7304 2.43808L22.4915 2.91588C22.2882 3.32238 22.2291 3.42891 22.1549 3.50658C22.0784 3.58668 21.9866 3.65069 21.885 3.69481C21.7865 3.73759 21.6661 3.75622 21.2144 3.80642L20.9975 3.83051L20.9715 3.83341H20.9715C20.2594 3.91252 19.6906 3.97572 19.2599 4.06331C18.8352 4.1497 18.4394 4.27759 18.1623 4.56029C17.7659 4.96475 17.5792 5.53011 17.6569 6.0911C17.7113 6.48319 17.9531 6.82163 18.243 7.14391C18.5368 7.47065 18.9562 7.86015 19.4812 8.34767L19.5004 8.36549L19.7294 8.57806C20.1271 8.94735 20.229 9.05181 20.2862 9.16305C20.3452 9.27794 20.3766 9.40494 20.3779 9.53407C20.3792 9.65894 20.3369 9.80143 20.1548 10.3205L20.1462 10.3451L20.1461 10.3451C19.8774 11.1111 19.6645 11.7178 19.5437 12.1897C19.4263 12.6482 19.3605 13.0984 19.5135 13.4882C19.7289 14.0368 20.1955 14.448 20.7668 14.5926C21.1717 14.6951 21.6062 14.5757 22.0423 14.4037C22.49 14.2271 23.0569 13.9436 23.7717 13.5862L23.7951 13.5745L24.3509 13.2966C24.7257 13.1092 24.828 13.0631 24.9262 13.0447C25.0275 13.0257 25.1315 13.0257 25.2327 13.0447C25.3309 13.0631 25.4333 13.1092 25.808 13.2966L26.3638 13.5745L26.3873 13.5862C27.102 13.9436 27.6689 14.2271 28.1166 14.4037C28.5527 14.5757 28.9872 14.6951 29.3921 14.5926C29.9634 14.448 30.43 14.0368 30.6454 13.4882C30.7985 13.0984 30.7326 12.6482 30.6153 12.1897C30.4944 11.7178 30.2816 11.1111 30.0127 10.3451V10.345L30.0042 10.3205C29.8221 9.80143 29.7797 9.65894 29.781 9.53407C29.7824 9.40494 29.8137 9.27794 29.8728 9.16305C29.9299 9.05181 30.0318 8.94735 30.4296 8.57806L30.6585 8.36549L30.6777 8.3476C31.2027 7.86009 31.6221 7.47065 31.916 7.14391C32.2058 6.82163 32.4477 6.48319 32.502 6.0911C32.5797 5.53011 32.3931 4.96475 31.9966 4.56029C31.7195 4.27759 31.3237 4.1497 30.899 4.06331C30.4683 3.97572 29.8995 3.91252 29.1875 3.83341L29.1614 3.83051L28.9446 3.80642C28.4929 3.75622 28.3724 3.73759 28.274 3.69481C28.1723 3.65069 28.0806 3.58668 28.004 3.50658C27.9298 3.42891 27.8707 3.32238 27.6675 2.91587L27.4286 2.43809L27.4169 2.41486C27.1205 1.82202 26.8825 1.34597 26.6656 0.995746C26.4498 0.647412 26.2063 0.339219 25.863 0.176397Z" fill="#FFC250"/>
    <path fill-rule="evenodd" clip-rule="evenodd" d="M43.5026 0.176397C43.0067 -0.0587983 42.4315 -0.058799 41.9356 0.176395C41.5923 0.339213 41.3488 0.647412 41.133 0.995746C40.9161 1.34597 40.6781 1.82202 40.3817 2.41485L40.3816 2.41487L40.37 2.43808L40.1311 2.91588C39.9279 3.32238 39.8688 3.42891 39.7946 3.50658C39.718 3.58668 39.6263 3.65069 39.5246 3.69481C39.4261 3.73759 39.3057 3.75622 38.854 3.80642L38.6371 3.83051L38.6111 3.83341H38.6111C37.8991 3.91252 37.3302 3.97572 36.8996 4.06331C36.4749 4.1497 36.079 4.27759 35.8019 4.56029C35.4055 4.96475 35.2189 5.53011 35.2966 6.0911C35.3509 6.48319 35.5928 6.82163 35.8826 7.14391C36.1765 7.47065 36.5959 7.86015 37.1209 8.34767L37.1401 8.36549L37.369 8.57806C37.7667 8.94735 37.8687 9.05181 37.9258 9.16305C37.9848 9.27794 38.0162 9.40494 38.0176 9.53407C38.0189 9.65894 37.9765 9.80143 37.7944 10.3205L37.7858 10.3451L37.7858 10.3451C37.517 11.1111 37.3042 11.7178 37.1833 12.1897C37.0659 12.6482 37.0001 13.0984 37.1532 13.4882C37.3686 14.0368 37.8352 14.448 38.4065 14.5926C38.8114 14.6951 39.2458 14.5757 39.682 14.4037C40.1297 14.2271 40.6966 13.9436 41.4114 13.5862L41.4348 13.5745L41.9906 13.2966C42.3653 13.1092 42.4676 13.0631 42.5659 13.0447C42.6671 13.0257 42.7711 13.0257 42.8724 13.0447C42.9706 13.0631 43.0729 13.1092 43.4476 13.2966L44.0034 13.5745L44.0269 13.5862C44.7417 13.9436 45.3086 14.2271 45.7562 14.4037C46.1923 14.5757 46.6269 14.6951 47.0317 14.5926C47.6031 14.448 48.0697 14.0368 48.285 13.4882C48.4381 13.0984 48.3723 12.6482 48.2549 12.1897C48.1341 11.7178 47.9212 11.1111 47.6524 10.3451V10.345L47.6438 10.3205C47.4617 9.80143 47.4193 9.65894 47.4206 9.53407C47.422 9.40494 47.4534 9.27794 47.5124 9.16305C47.5696 9.05181 47.6715 8.94735 48.0692 8.57806L48.2981 8.36549L48.3174 8.3476C48.8424 7.86009 49.2618 7.47065 49.5556 7.14391C49.8454 6.82163 50.0873 6.48319 50.1416 6.0911C50.2194 5.53011 50.0327 4.96475 49.6363 4.56029C49.3592 4.27759 48.9634 4.1497 48.5386 4.06331C48.108 3.97572 47.5392 3.91252 46.8271 3.83341L46.8011 3.83051L46.5842 3.80642C46.1325 3.75622 46.0121 3.73759 45.9136 3.69481C45.812 3.65069 45.7202 3.58668 45.6437 3.50658C45.5695 3.42891 45.5104 3.32238 45.3071 2.91587L45.0682 2.43809L45.0566 2.41486C44.7602 1.82202 44.5222 1.34597 44.3052 0.995746C44.0895 0.647412 43.846 0.339219 43.5026 0.176397Z" fill="#FFC250"/>
    <path fill-rule="evenodd" clip-rule="evenodd" d="M61.1423 0.176397C60.6464 -0.0587983 60.0711 -0.058799 59.5752 0.176395C59.232 0.339213 58.9884 0.647412 58.7727 0.995746C58.5557 1.34597 58.3177 1.82202 58.0213 2.41485L58.0213 2.41487L58.0097 2.43808L57.7708 2.91588C57.5675 3.32238 57.5084 3.42891 57.4342 3.50658C57.3577 3.58668 57.2659 3.65069 57.1643 3.69481C57.0658 3.73759 56.9454 3.75622 56.4937 3.80642L56.2768 3.83051L56.2508 3.83341H56.2508C55.5387 3.91252 54.9699 3.97572 54.5392 4.06331C54.1145 4.1497 53.7187 4.27759 53.4416 4.56029C53.0452 4.96475 52.8585 5.53011 52.9362 6.0911C52.9906 6.48319 53.2324 6.82163 53.5223 7.14391C53.8161 7.47065 54.2355 7.86015 54.7605 8.34767L54.7797 8.36549L55.0087 8.57806C55.4064 8.94735 55.5083 9.05181 55.5655 9.16305C55.6245 9.27794 55.6559 9.40494 55.6572 9.53407C55.6585 9.65894 55.6162 9.80143 55.4341 10.3205L55.4255 10.3451L55.4254 10.3451C55.1567 11.1111 54.9438 11.7178 54.823 12.1897C54.7056 12.6482 54.6398 13.0984 54.7928 13.4882C55.0082 14.0368 55.4748 14.448 56.0461 14.5926C56.451 14.6951 56.8855 14.5757 57.3216 14.4037C57.7693 14.2271 58.3362 13.9436 59.051 13.5862L59.0744 13.5745L59.6302 13.2966C60.005 13.1092 60.1073 13.0631 60.2055 13.0447C60.3068 13.0257 60.4108 13.0257 60.512 13.0447C60.6102 13.0631 60.7126 13.1092 61.0873 13.2966L61.6431 13.5745L61.6666 13.5862C62.3813 13.9436 62.9482 14.2271 63.3959 14.4037C63.832 14.5757 64.2665 14.6951 64.6714 14.5926C65.2427 14.448 65.7093 14.0368 65.9247 13.4882C66.0778 13.0984 66.0119 12.6482 65.8946 12.1897C65.7737 11.7178 65.5609 11.1111 65.292 10.3451V10.345L65.2835 10.3205C65.1014 9.80143 65.059 9.65894 65.0603 9.53407C65.0617 9.40494 65.093 9.27794 65.1521 9.16305C65.2092 9.05181 65.3111 8.94735 65.7089 8.57806L65.9378 8.36549L65.957 8.3476C66.482 7.86009 66.9014 7.47065 67.1953 7.14391C67.4851 6.82163 67.727 6.48319 67.7813 6.0911C67.859 5.53011 67.6724 4.96475 67.2759 4.56029C66.9988 4.27759 66.603 4.1497 66.1783 4.06331C65.7476 3.97572 65.1788 3.91252 64.4668 3.83341L64.4407 3.83051L64.2239 3.80642C63.7722 3.75622 63.6517 3.73759 63.5533 3.69481C63.4516 3.65069 63.3598 3.58668 63.2833 3.50658C63.2091 3.42891 63.15 3.32238 62.9467 2.91587L62.7078 2.43809L62.6962 2.41486C62.3998 1.82202 62.1618 1.34597 61.9449 0.995746C61.7291 0.647412 61.4856 0.339219 61.1423 0.176397Z" fill="#FFC250"/>
    <path fill-rule="evenodd" clip-rule="evenodd" d="M78.7819 0.176397C78.286 -0.0587983 77.7108 -0.058799 77.2149 0.176395C76.8716 0.339213 76.6281 0.647412 76.4123 0.995746C76.1954 1.34597 75.9573 1.82202 75.6609 2.41485L75.6609 2.41487L75.6493 2.43808L75.4104 2.91588C75.2072 3.32238 75.1481 3.42891 75.0739 3.50658C74.9973 3.58668 74.9056 3.65069 74.8039 3.69481C74.7054 3.73759 74.585 3.75622 74.1333 3.80642L73.9164 3.83051L73.8904 3.83341H73.8904C73.1783 3.91252 72.6095 3.97572 72.1789 4.06331C71.7541 4.1497 71.3583 4.27759 71.0812 4.56029C70.6848 4.96475 70.4982 5.53011 70.5759 6.0911C70.6302 6.48319 70.8721 6.82163 71.1619 7.14391C71.4558 7.47065 71.8752 7.86015 72.4002 8.34767L72.4194 8.36549L72.6483 8.57806C73.046 8.94735 73.148 9.05181 73.2051 9.16305C73.2641 9.27794 73.2955 9.40494 73.2969 9.53407C73.2982 9.65894 73.2558 9.80143 73.0737 10.3205L73.0651 10.3451L73.0651 10.3451C72.7963 11.1111 72.5834 11.7178 72.4626 12.1897C72.3452 12.6482 72.2794 13.0984 72.4325 13.4882C72.6478 14.0368 73.1144 14.448 73.6858 14.5926C74.0906 14.6951 74.5251 14.5757 74.9613 14.4037C75.409 14.2271 75.9759 13.9436 76.6907 13.5862L76.7141 13.5745L77.2699 13.2966C77.6446 13.1092 77.7469 13.0631 77.8451 13.0447C77.9464 13.0257 78.0504 13.0257 78.1517 13.0447C78.2499 13.0631 78.3522 13.1092 78.7269 13.2966L79.2827 13.5745L79.3062 13.5862C80.021 13.9436 80.5879 14.2271 81.0355 14.4037C81.4716 14.5757 81.9061 14.6951 82.311 14.5926C82.8824 14.448 83.349 14.0368 83.5643 13.4882C83.7174 13.0984 83.6516 12.6482 83.5342 12.1897C83.4133 11.7178 83.2005 11.1111 82.9317 10.3451V10.345L82.9231 10.3205C82.741 9.80143 82.6986 9.65894 82.6999 9.53407C82.7013 9.40494 82.7327 9.27794 82.7917 9.16305C82.8488 9.05181 82.9508 8.94735 83.3485 8.57806L83.5774 8.36549L83.5967 8.3476C84.1217 7.86009 84.5411 7.47065 84.8349 7.14391C85.1247 6.82163 85.3666 6.48319 85.4209 6.0911C85.4987 5.53011 85.312 4.96475 84.9155 4.56029C84.6385 4.27759 84.2427 4.1497 83.8179 4.06331C83.3873 3.97572 82.8185 3.91252 82.1064 3.83341L82.0804 3.83051L81.8635 3.80642C81.4118 3.75622 81.2914 3.73759 81.1929 3.69481C81.0912 3.65069 80.9995 3.58668 80.923 3.50658C80.8488 3.42891 80.7896 3.32238 80.5864 2.91587L80.3475 2.43809L80.3359 2.41486C80.0394 1.82202 79.8015 1.34597 79.5845 0.995746C79.3688 0.647412 79.1253 0.339219 78.7819 0.176397Z" fill="#FFC250"/>
    </svg>
    