<svg width="32" height="33" viewBox="0 0 32 33" fill="none" xmlns="http://www.w3.org/2000/svg">
    <path fill-rule="evenodd" clip-rule="evenodd" d="M10.6845 8.44222C10.6845 7.91915 11.1084 7.49519 11.6315 7.49518L24.1324 7.49512C24.3836 7.49503 24.6245 7.59486 24.8021 7.77246C24.9797 7.95006 25.0795 8.19098 25.0795 8.44224L25.0795 20.9432C25.0795 21.4662 24.6555 21.8902 24.1325 21.8902C23.6094 21.8902 23.1853 21.4662 23.1853 20.9431L23.1853 10.7287L8.72945 25.1845C8.35959 25.5543 7.75992 25.5543 7.39007 25.1845C7.02022 24.8146 7.02021 24.2149 7.39007 23.8451L21.8459 9.38928L11.6316 9.38931C11.1085 9.38931 10.6845 8.96529 10.6845 8.44222Z" fill="black"/>
    </svg>
    